<?xml version="1.0" encoding="utf-8"?>
<!-- Generator: Adobe Illustrator 24.1.0, SVG Export Plug-In . SVG Version: 6.00 Build 0)  -->
<svg version="1.1" id="Calque_1" xmlns="http://www.w3.org/2000/svg" xmlns:xlink="http://www.w3.org/1999/xlink" x="0px" y="0px"
	 viewBox="0 0 384 384" style="enable-background:new 0 0 384 384;" xml:space="preserve">
<style type="text/css">
	.st0{fill:#FFFFFF;stroke:#000000;stroke-miterlimit:10;}
	.st1{fill:#FFFFFF;}
	.st2{fill:none;stroke:#FFFFFF;stroke-width:25;stroke-miterlimit:10;}
</style>
<path class="st0" d="M191.5,383.4"/>
<path class="st1" d="M191.5,227.4"/>
<circle class="st2" cx="191.5" cy="191.4" r="173.7"/>
<path class="st1" d="M299.6,150.1H83.4c-4.7,0-8.5-3.8-8.5-8.5v-8c0-4.7,3.8-8.5,8.5-8.5h216.2c4.7,0,8.5,3.8,8.5,8.5v8
	C308.1,146.3,304.3,150.1,299.6,150.1z"/>
<path class="st1" d="M270.3,210.5H112.7c-3.4,0-6.2-3.8-6.2-8.5v-8c0-4.7,2.8-8.5,6.2-8.5h157.6c3.4,0,6.2,3.8,6.2,8.5v8
	C276.5,206.7,273.7,210.5,270.3,210.5z"/>
<path class="st1" d="M237.9,275.6h-92.7c-2,0-3.6-3.8-3.6-8.5v-8c0-4.7,1.6-8.5,3.6-8.5h92.7c2,0,3.6,3.8,3.6,8.5v8
	C241.5,271.8,239.9,275.6,237.9,275.6z"/>
</svg>
